<svg xmlns="http://www.w3.org/2000/svg" viewBox="0 0 420 120">
  <!-- Magnifying glass circle -->
  <circle cx="50" cy="52" r="42" fill="none" stroke="#1e3a5f" stroke-width="4.5"/>

  <!-- Magnifying glass handle - going to bottom left -->
  <line x1="22" y1="84" x2="0" y2="108" stroke="#1e3a5f" stroke-width="6" stroke-linecap="round"/>

  <!-- 3D Network inside magnifying glass -->
  <!-- Vertices (nodes) -->
  <!-- Top left -->
  <circle cx="28" cy="38" r="4" fill="#1e3a5f"/>
  <!-- Top right -->
  <circle cx="58" cy="32" r="4" fill="#1e3a5f"/>
  <!-- Middle center -->
  <circle cx="42" cy="52" r="4" fill="#1e3a5f"/>
  <!-- Bottom left -->
  <circle cx="32" cy="68" r="4" fill="#1e3a5f"/>
  <!-- Bottom right -->
  <circle cx="62" cy="62" r="4" fill="#1e3a5f"/>

  <!-- Network edges (connections) -->
  <!-- Top connections -->
  <line x1="28" y1="38" x2="58" y2="32" stroke="#1e3a5f" stroke-width="2"/>
  <line x1="28" y1="38" x2="42" y2="52" stroke="#1e3a5f" stroke-width="2"/>
  <line x1="58" y1="32" x2="42" y2="52" stroke="#1e3a5f" stroke-width="2"/>
  <line x1="58" y1="32" x2="62" y2="62" stroke="#1e3a5f" stroke-width="2"/>

  <!-- Middle to bottom connections -->
  <line x1="42" y1="52" x2="32" y2="68" stroke="#1e3a5f" stroke-width="2"/>
  <line x1="42" y1="52" x2="62" y2="62" stroke="#1e3a5f" stroke-width="2"/>
  <line x1="28" y1="38" x2="32" y2="68" stroke="#1e3a5f" stroke-width="2"/>
  <line x1="32" y1="68" x2="62" y2="62" stroke="#1e3a5f" stroke-width="2"/>

  <!-- Arrow pointing up-right from top-right vertex -->
  <line x1="58" y1="32" x2="74" y2="16" stroke="#1e3a5f" stroke-width="2"/>
  <polygon points="74,16 66,18 68,24" fill="#1e3a5f"/>

  <!-- Text "SEARCH FUND HUB" stacked -->
  <text x="115" y="40" fill="#1e3a5f" font-family="Arial, Helvetica, sans-serif" font-size="32" font-weight="bold" letter-spacing="1">SEARCH</text>
  <text x="115" y="74" fill="#1e3a5f" font-family="Arial, Helvetica, sans-serif" font-size="32" font-weight="bold" letter-spacing="1">FUND</text>
  <text x="115" y="108" fill="#1e3a5f" font-family="Arial, Helvetica, sans-serif" font-size="32" font-weight="bold" letter-spacing="1">HUB</text>
</svg>
