<svg xmlns="http://www.w3.org/2000/svg" viewBox="0 0 400 120">
  <!-- Magnifying glass circle -->
  <circle cx="48" cy="52" r="40" fill="none" stroke="#1e3a5f" stroke-width="4"/>

  <!-- Magnifying glass handle -->
  <line x1="20" y1="80" x2="-2" y2="104" stroke="#1e3a5f" stroke-width="6" stroke-linecap="round"/>

  <!-- 3D Network cube/polyhedron inside -->
  <!-- Back face vertices -->
  <circle cx="30" cy="38" r="4" fill="#1e3a5f"/>
  <circle cx="54" cy="34" r="4" fill="#1e3a5f"/>

  <!-- Front face vertices -->
  <circle cx="38" cy="56" r="4" fill="#1e3a5f"/>
  <circle cx="62" cy="52" r="4" fill="#1e3a5f"/>

  <!-- Bottom vertex -->
  <circle cx="46" cy="72" r="4" fill="#1e3a5f"/>

  <!-- Network edges - back to front connections -->
  <line x1="30" y1="38" x2="54" y2="34" stroke="#1e3a5f" stroke-width="2"/>
  <line x1="30" y1="38" x2="38" y2="56" stroke="#1e3a5f" stroke-width="2"/>
  <line x1="54" y1="34" x2="62" y2="52" stroke="#1e3a5f" stroke-width="2"/>
  <line x1="38" y1="56" x2="62" y2="52" stroke="#1e3a5f" stroke-width="2"/>

  <!-- Cross connections -->
  <line x1="30" y1="38" x2="62" y2="52" stroke="#1e3a5f" stroke-width="2"/>
  <line x1="54" y1="34" x2="38" y2="56" stroke="#1e3a5f" stroke-width="2"/>

  <!-- Bottom connections -->
  <line x1="38" y1="56" x2="46" y2="72" stroke="#1e3a5f" stroke-width="2"/>
  <line x1="62" y1="52" x2="46" y2="72" stroke="#1e3a5f" stroke-width="2"/>
  <line x1="30" y1="38" x2="46" y2="72" stroke="#1e3a5f" stroke-width="2"/>

  <!-- Arrow pointing up-right from top-right vertex -->
  <line x1="54" y1="34" x2="72" y2="16" stroke="#1e3a5f" stroke-width="2.5"/>
  <polygon points="72,16 64,20 66,26" fill="#1e3a5f"/>

  <!-- Text "SEARCH FUND HUB" stacked -->
  <text x="108" y="40" fill="#1e3a5f" font-family="Arial, Helvetica, sans-serif" font-size="30" font-weight="bold" letter-spacing="2">SEARCH</text>
  <text x="108" y="74" fill="#1e3a5f" font-family="Arial, Helvetica, sans-serif" font-size="30" font-weight="bold" letter-spacing="2">FUND</text>
  <text x="108" y="108" fill="#1e3a5f" font-family="Arial, Helvetica, sans-serif" font-size="30" font-weight="bold" letter-spacing="2">HUB</text>
</svg>
